<?xml version="1.0" encoding="UTF-8" standalone="no"?>
<svg
   version="1.1"
   style="display:block"
   viewBox="0 0 2048 1536"
   width="1024"
   height="768"
   preserveAspectRatio="none"
   id="svg17"
   sodipodi:docname="drawing5_sister_mono_black_logo_only.svg"
   inkscape:version="1.4.2 (ebf0e940d0, 2025-05-08)"
   xmlns:inkscape="http://www.inkscape.org/namespaces/inkscape"
   xmlns:sodipodi="http://sodipodi.sourceforge.net/DTD/sodipodi-0.dtd"
   xmlns:xlink="http://www.w3.org/1999/xlink"
   xmlns="http://www.w3.org/2000/svg"
   xmlns:svg="http://www.w3.org/2000/svg">
  <sodipodi:namedview
     id="namedview17"
     pagecolor="#000000"
     bordercolor="#000000"
     borderopacity="0.25"
     inkscape:showpageshadow="2"
     inkscape:pageopacity="0.0"
     inkscape:pagecheckerboard="false"
     inkscape:deskcolor="#d1d1d1"
     inkscape:zoom="0.51306674"
     inkscape:cx="195.88095"
     inkscape:cy="519.4256"
     inkscape:window-width="1704"
     inkscape:window-height="996"
     inkscape:window-x="0"
     inkscape:window-y="0"
     inkscape:window-maximized="1"
     inkscape:current-layer="g20" />
  <defs
     id="defs2">
    <pattern
       inkscape:collect="always"
       xlink:href="#pattern466"
       preserveAspectRatio="xMidYMid"
       id="pattern467"
       patternTransform="rotate(-45)"
       x="0"
       y="0" />
    <pattern
       patternUnits="userSpaceOnUse"
       width="90"
       height="90"
       id="pattern466"
       preserveAspectRatio="xMidYMid"
       patternTransform="rotate(-45)"
       style="fill:#ffffff"
       inkscape:label="Floor tiles"
       inkscape:collect="always"
       inkscape:isstock="true">
      <path
         id="path465"
         style="stroke-width:5;stroke-miterlimit:10"
         d="M 0,0 V 1 H 15 V 15 H 0 v 1 44 0.5 0.5 14 1 h 30 v 14 h 1 V 76 h 14 v 14 h 1 V 61 h 14 v 29 h 1 V 46 h 14 v 29 0.5 0.5 14 h 1 V 76 H 90 V 75 H 76 V 31 H 90 V 30 H 75 46 V 16 H 61 90 V 15 H 61 V 1 H 90 V 0 H 61 60 V 0.5 15 H 46 V 0 H 45 V 15 15.5 16 30 H 31 V 0 H 30 15 Z M 16,1 H 30 V 30 30.5 31 45 H 16 V 16 15 Z M 1,16 H 15 V 45 45.5 46 60 H 1 Z M 31,31 H 46 75 V 45 H 61 31 Z M 16,46 H 31 60 V 60 H 46 16 Z M 1,61 H 16 45 V 75 H 31 1 Z" />
    </pattern>
    <pattern
       inkscape:collect="always"
       xlink:href="#FloorTiles"
       preserveAspectRatio="xMidYMid"
       id="pattern464"
       patternTransform="rotate(-45)" />
    <pattern
       patternUnits="userSpaceOnUse"
       width="90"
       height="90"
       id="FloorTiles"
       preserveAspectRatio="xMidYMid"
       patternTransform="rotate(-45)"
       style="fill:#000000"
       inkscape:label="Floor tiles"
       inkscape:collect="always"
       inkscape:isstock="true">
      <path
         id="rect1"
         style="stroke-width:5;stroke-miterlimit:10"
         d="M 0,0 V 1 H 15 V 15 H 0 v 1 44 0.5 0.5 14 1 h 30 v 14 h 1 V 76 h 14 v 14 h 1 V 61 h 14 v 29 h 1 V 46 h 14 v 29 0.5 0.5 14 h 1 V 76 H 90 V 75 H 76 V 31 H 90 V 30 H 75 46 V 16 H 61 90 V 15 H 61 V 1 H 90 V 0 H 61 60 V 0.5 15 H 46 V 0 H 45 V 15 15.5 16 30 H 31 V 0 H 30 15 Z M 16,1 H 30 V 30 30.5 31 45 H 16 V 16 15 Z M 1,16 H 15 V 45 45.5 46 60 H 1 Z M 31,31 H 46 75 V 45 H 61 31 Z M 16,46 H 31 60 V 60 H 46 16 Z M 1,61 H 16 45 V 75 H 31 1 Z" />
    </pattern>
    <linearGradient
       id="Gradient1"
       gradientUnits="userSpaceOnUse"
       x1="1397.49"
       y1="818.14099"
       x2="1019.57"
       y2="604.84998"
       gradientTransform="matrix(1.5479745,0,0,1.5479745,-572.45992,-307.29698)">
      <stop
         class="stop0"
         offset="0"
         stop-opacity="1"
         stop-color="rgb(81,211,254)"
         id="stop1" />
      <stop
         class="stop1"
         offset="1"
         stop-opacity="1"
         stop-color="rgb(101,234,253)"
         id="stop2" />
    </linearGradient>
  </defs>
  <g
     id="g18"
     transform="translate(12.352035,22.739733)">
    <g
       id="g20"
       transform="translate(-1.0186065,-496.22652)">
      <g
         id="g19"
         transform="matrix(1.5034943,0,0,1.5034943,-586.72095,8.5616868)"
         style="fill:#ffffff;fill-opacity:1;stroke:#ffffff;stroke-opacity:1">
        <text
           xml:space="preserve"
           style="font-style:normal;font-variant:normal;font-weight:normal;font-stretch:normal;font-size:1260.08px;font-family:Zekton;-inkscape-font-specification:Zekton;text-align:start;writing-mode:lr-tb;direction:ltr;text-anchor:start;fill:#ffffff;fill-opacity:1;stroke:#ffffff;stroke-width:57.9364;stroke-opacity:1"
           x="370.74774"
           y="1148.9187"
           id="text19"><tspan
             sodipodi:role="line"
             id="tspan19"
             style="fill:#ffffff;fill-opacity:1;stroke:#ffffff;stroke-width:57.9364;stroke-opacity:1"
             x="370.74774"
             y="1148.9187">m</tspan></text>
        <path
           fill="#48cefe"
           d="m 1579.081,462.93617 c -28.2891,-1.04568 -68.4429,-0.92876 -97.0201,-0.0417 13.7944,13.12678 26.564,28.21461 38.8254,42.82639 89.5556,106.72314 123.5857,245.05849 105.1132,382.69813 -10.2036,79.79815 -40.0382,155.72491 -86.7661,220.81611 -15.5707,21.6315 -29.9229,38.0765 -47.4457,57.7706 -4.1056,4.2428 -7.0205,7.5501 -11.8959,10.8826 l 96.2206,-0.075 c 0.8696,-0.7851 1.7128,-1.5954 2.5289,-2.4388 10.8233,-10.9662 29.7693,-38.2103 38.7041,-51.2561 62.5428,-91.3388 89.4014,-200.76962 88.6192,-311.30876 -0.7731,-109.33816 -31.4031,-222.82973 -95.959,-311.7824 -8.316,-11.45807 -21.0311,-28.20961 -30.9246,-38.09082 z"
           id="path7-1"
           style="display:block;fill:#ffffff;fill-opacity:1;stroke:#ffffff;stroke-width:0.830119;stroke-opacity:1" />
      </g>
    </g>
  </g>
</svg>
