<?xml version="1.0" encoding="UTF-8" standalone="no"?>
<svg
   version="1.1"
   style="display:block"
   viewBox="0 0 300 300"
   width="150"
   height="150"
   preserveAspectRatio="none"
   id="svg17"
   sodipodi:docname="matrixos-logo-colorful.svg"
   inkscape:version="1.4.3 (0d15f75042, 2025-12-25)"
   xmlns:inkscape="http://www.inkscape.org/namespaces/inkscape"
   xmlns:sodipodi="http://sodipodi.sourceforge.net/DTD/sodipodi-0.dtd"
   xmlns="http://www.w3.org/2000/svg"
   xmlns:svg="http://www.w3.org/2000/svg">
  <sodipodi:namedview
     id="namedview17"
     pagecolor="#ffffff"
     bordercolor="#000000"
     borderopacity="0.25"
     inkscape:showpageshadow="2"
     inkscape:pageopacity="0.0"
     inkscape:pagecheckerboard="false"
     inkscape:deskcolor="#d1d1d1"
     inkscape:zoom="1.4511719"
     inkscape:cx="121.97039"
     inkscape:cy="202.59488"
     inkscape:window-width="3072"
     inkscape:window-height="1691"
     inkscape:window-x="0"
     inkscape:window-y="0"
     inkscape:window-maximized="1"
     inkscape:current-layer="g18"
     showgrid="false" />
  <defs
     id="defs2">
    <linearGradient
       id="Gradient1"
       gradientUnits="userSpaceOnUse"
       x1="1397.49"
       y1="818.14099"
       x2="1019.57"
       y2="604.84998"
       gradientTransform="matrix(1.5479745,0,0,1.5479745,-572.45992,-307.29698)">
      <stop
         class="stop0"
         offset="0"
         stop-opacity="1"
         stop-color="rgb(81,211,254)"
         id="stop1" />
      <stop
         class="stop1"
         offset="1"
         stop-opacity="1"
         stop-color="rgb(101,234,253)"
         id="stop2" />
    </linearGradient>
  </defs>
  <g
     id="g18"
     transform="translate(12.352035,22.739733)">
    <g
       id="g1"
       transform="translate(0,25.000082)">
      <path
         d="M -2.9530059,-9.06864 V 141.62077 H 17.841304 V 11.7161 H 97.552825 V 141.62077 H 117.76951 V 11.7161 h 49.96409 c 19.63909,0 29.45862,10.39238 29.45862,30.88845 v 99.01622 h 21.08311 V 39.14043 c 0,-32.04316 -15.59571,-48.20907 -46.49837,-48.20907 z"
         id="text19"
         style="font-size:1260.08px;font-family:Zekton;-inkscape-font-specification:Zekton;fill:#1f68da;stroke:#1f68da;stroke-width:13.2759"
         aria-label="m" />
      <path
         fill="#48cefe"
         d="m 255.8015,-15.53386 c -6.48385,-0.23956 -15.68708,-0.21278 -22.23696,-0.01 3.16166,3.00727 6.08845,6.4638 8.89876,9.81128 20.5261,24.44965 28.3258,56.14148 24.0919,87.67394 -2.33866,18.28129 -9.17672,35.67567 -19.88676,50.58769 -3.56879,4.95567 -6.8583,8.72312 -10.87452,13.23492 -0.94101,0.97199 -1.60911,1.72968 -2.72654,2.49313 l 22.05373,-0.0172 c 0.1993,-0.17987 0.39257,-0.3655 0.57961,-0.55871 2.48069,-2.5123 6.82312,-8.75376 8.87098,-11.74249 14.33477,-20.92519 20.49077,-45.99516 20.31149,-71.31904 -0.17722,-25.04875 -7.19759,-51.04901 -21.99378,-71.42755 -1.90602,-2.62498 -4.82032,-6.46266 -7.08791,-8.72639 z"
         id="path7-1"
         style="display:block;stroke-width:0.190219" />
      <path
         style="font-size:322.581px;font-family:Zekton;-inkscape-font-specification:Zekton;fill:#1f68da;stroke-width:3.25939"
         d="m -9.59124,183.22221 v 37.00475 h 5.1041024 V 188.32631 H 15.078591 v 31.90065 h 4.962321 v -31.90065 h 12.264025 c 4.820542,0 7.230812,2.55207 7.230812,7.58527 v 24.31538 h 5.174993 v -25.16607 c 0,-7.86883 -3.828076,-11.83868 -11.413341,-11.83868 z m 63.2341,0 v 5.03322 h 21.125313 c 4.678761,0 7.018141,2.48116 7.018141,7.3017 v 12.68936 c 0,5.03323 -2.41027,7.51438 -7.230812,7.51438 H 63.283943 c -3.828077,0 -5.813007,-1.91404 -5.813007,-5.67123 v -1.70136 c 0,-3.26097 1.91404,-4.89143 5.742116,-4.89143 h 15.73765 v -4.18253 H 61.866136 c -6.309238,0 -9.357521,2.76473 -9.357521,8.22327 v 2.9065 c 0,6.52192 3.260956,9.78287 9.853754,9.78287 h 13.043818 c 7.656154,0 11.555121,-3.96985 11.555121,-11.83868 v -13.32739 c 0,-7.86883 -3.898967,-11.83868 -11.555121,-11.83868 z m 45.511553,-12.05136 v 12.05136 h -6.94725 v 4.60788 h 6.94725 v 32.39687 h 5.174987 v -32.39687 h 8.01061 v -4.60788 h -8.01061 v -12.05136 z m 30.340987,12.12226 c -7.72704,0 -11.55512,3.96985 -11.55512,11.83867 v 25.09518 h 5.175 v -24.24449 c 0,-5.03322 2.48116,-7.58527 7.3017,-7.58527 h 9.07396 v -5.10409 z m 16.4466,0.28355 v 36.6503 h 5.175 v -36.6503 z m 0,-15.59586 v 8.22327 h 5.175 v -8.22327 z m 45.2989,15.24141 -13.82361,15.02875 -13.68184,-15.02875 h -6.38014 l 16.37567,18.14791 -17.50991,18.85684 h 6.09657 l 14.46162,-15.59586 14.10717,15.59586 h 6.52192 l -17.08456,-18.71505 17.01367,-18.2897 z"
         id="path1" />
      <path
         style="font-size:322.581px;font-family:Zekton;-inkscape-font-specification:Zekton;fill:#48cefe;stroke-width:3.25939"
         d="m 213.57137,168.47704 c -7.72704,0 -11.55512,3.89895 -11.55512,11.76778 v 28.21434 c 0,7.86882 3.82808,11.7678 11.55512,11.7678 h 16.44656 c 7.65616,0 11.55512,-3.89898 11.55512,-11.7678 v -28.21434 c 0,-7.86883 -3.89896,-11.76778 -11.55512,-11.76778 z m -6.16744,12.61847 c 0,-4.89144 2.41025,-7.30172 7.15992,-7.30172 h 14.39073 c 4.82054,0 7.15992,2.41028 7.15992,7.30172 v 26.51298 c 0,4.89143 -2.33938,7.30169 -7.15992,7.30169 h -14.39073 c -4.74967,0 -7.15992,-2.41026 -7.15992,-7.30169 z m 52.24618,-12.61847 c -7.44348,0 -11.12977,3.82806 -11.12977,11.34243 v 5.95479 c 0,6.87637 3.33184,10.27911 10.06642,10.27911 h 15.31231 c 3.82808,0 5.74212,1.98491 5.74212,5.88389 v 6.38013 c 0,4.39519 -2.12672,6.59279 -6.45102,6.59279 h -24.31538 v 5.31678 h 24.88249 c 7.44348,0 11.1298,-3.82808 11.1298,-11.34246 v -7.37259 c 0,-6.87634 -3.33187,-10.27908 -10.06643,-10.27908 h -15.24143 c -3.89896,0 -5.74211,-1.98494 -5.74211,-5.88392 v -4.9623 c 0,-4.39522 2.12671,-6.59282 6.38014,-6.59282 h 22.96845 v -5.31675 z"
         id="path2" />
    </g>
  </g>
</svg>
