<?xml version="1.0" encoding="UTF-8" standalone="no"?>
<svg
   version="1.1"
   style="display:block"
   viewBox="0 0 250 300"
   width="125"
   height="150"
   preserveAspectRatio="none"
   id="svg17"
   sodipodi:docname="matrixos-logo-darkmode.svg"
   inkscape:version="1.4.3 (0d15f75042, 2025-12-25)"
   xmlns:inkscape="http://www.inkscape.org/namespaces/inkscape"
   xmlns:sodipodi="http://sodipodi.sourceforge.net/DTD/sodipodi-0.dtd"
   xmlns="http://www.w3.org/2000/svg"
   xmlns:svg="http://www.w3.org/2000/svg">
  <sodipodi:namedview
     id="namedview17"
     pagecolor="#ffffff"
     bordercolor="#000000"
     borderopacity="0.25"
     inkscape:showpageshadow="2"
     inkscape:pageopacity="0.0"
     inkscape:pagecheckerboard="false"
     inkscape:deskcolor="#d1d1d1"
     inkscape:zoom="4.1045339"
     inkscape:cx="70.288127"
     inkscape:cy="74.917154"
     inkscape:window-width="1704"
     inkscape:window-height="996"
     inkscape:window-x="0"
     inkscape:window-y="0"
     inkscape:window-maximized="1"
     inkscape:current-layer="g18" />
  <defs
     id="defs2">
    <linearGradient
       id="Gradient1"
       gradientUnits="userSpaceOnUse"
       x1="1397.49"
       y1="818.14099"
       x2="1019.57"
       y2="604.84998"
       gradientTransform="matrix(1.5479745,0,0,1.5479745,-572.45992,-307.29698)">
      <stop
         class="stop0"
         offset="0"
         stop-opacity="1"
         stop-color="rgb(81,211,254)"
         id="stop1" />
      <stop
         class="stop1"
         offset="1"
         stop-opacity="1"
         stop-color="rgb(101,234,253)"
         id="stop2" />
    </linearGradient>
  </defs>
  <g
     id="g18"
     transform="translate(12.352035,22.739733)">
    <path
       d="M -1.2237674,37.095771 V 159.13807 H 15.617398 V 53.929192 H 80.175194 V 159.13807 H 96.548549 V 53.929192 h 40.465571 c 15.90555,0 23.85832,8.416711 23.85832,25.016334 v 80.192544 h 17.07507 V 76.139956 c 0,-25.951524 -12.63087,-39.044185 -37.65871,-39.044185 z"
       id="text19-5"
       style="font-size:1260.08px;font-family:Zekton;-inkscape-font-specification:Zekton;fill:#1f68da;stroke:#1f68da;stroke-width:10.7521"
       aria-label="m" />
    <path
       fill="#48cefe"
       d="m 208.33968,31.859635 c -5.25122,-0.194017 -12.70486,-0.172324 -18.00956,-0.0077 2.56061,2.435567 4.931,5.23499 7.20705,7.946086 16.62395,19.801603 22.94086,45.468593 19.51186,71.006499 -1.89406,14.8059 -7.43218,28.89348 -16.10614,40.97062 -2.89035,4.01355 -5.55451,7.06478 -8.80721,10.71886 -0.76211,0.78722 -1.3032,1.40086 -2.20821,2.01918 l 17.86116,-0.0139 c 0.16142,-0.14566 0.31794,-0.29601 0.46943,-0.45249 2.0091,-2.03469 5.52599,-7.08961 7.18454,-9.51015 11.60964,-16.94717 16.59532,-37.25116 16.45013,-57.760794 -0.14351,-20.286799 -5.82927,-41.34423 -17.8126,-57.848668 -1.54368,-2.125951 -3.90394,-5.234062 -5.74045,-7.067439 z"
       id="path7-1-5"
       style="display:block;stroke-width:0.154057" />
    <path
       style="font-size:322.581px;font-family:Zekton;-inkscape-font-specification:Zekton;fill:#1f68da;stroke-width:2.63976"
       d="m -6.6000269,192.83078 v 29.96988 h 4.1337764 V 196.96455 H 13.379895 v 25.83611 h 4.018949 v -25.83611 h 9.932547 c 3.904123,0 5.856183,2.0669 5.856183,6.14325 v 19.69286 h 4.19119 v -20.38182 c 0,-6.37291 -3.100332,-9.58806 -9.243584,-9.58806 z m 51.2128509,0 v 4.07637 h 17.109241 c 3.789297,0 5.683944,2.00947 5.683944,5.91359 v 10.27703 c 0,4.07637 -1.952061,6.08584 -5.856184,6.08584 h -9.128757 c -3.100332,0 -4.707912,-1.55017 -4.707912,-4.59309 v -1.37792 c 0,-2.64104 1.550167,-3.96154 4.650499,-3.96154 h 12.745811 v -3.3874 H 51.272797 c -5.109808,0 -7.578591,2.23913 -7.578591,6.65997 v 2.35395 c 0,5.28206 2.641025,7.92308 7.980486,7.92308 h 10.564096 c 6.200665,0 9.358411,-3.21515 9.358411,-9.58806 v -10.79376 c 0,-6.37291 -3.157746,-9.58806 -9.358411,-9.58806 z m 36.859486,-9.76032 v 9.76032 h -5.62653 v 3.73188 h 5.62653 v 26.238 h 4.19119 v -26.238 h 6.487734 v -3.73188 H 85.6635 v -9.76032 z m 24.57295,9.81773 c -6.258074,0 -9.358407,3.21516 -9.358407,9.58806 v 20.32441 h 4.191187 v -19.63544 c 0,-4.07637 2.00948,-6.14326 5.9136,-6.14326 h 7.34894 v -4.13377 z m 13.31999,0.22965 v 29.68282 h 4.19119 v -29.68282 z m 0,-12.63098 v 6.65998 h 4.19119 v -6.65998 z m 36.68726,12.34392 -11.19565,12.17168 -11.08083,-12.17168 h -5.16722 l 13.26253,14.69786 -14.18115,15.27202 h 4.93758 l 11.71236,-12.63098 11.4253,12.63098 h 5.28205 l -13.83666,-15.15718 13.77924,-14.8127 z"
       id="path2" />
    <path
       style="font-size:322.581px;font-family:Zekton;-inkscape-font-specification:Zekton;fill:#48cefe;stroke-width:2.63976"
       d="m 174.1378,180.88876 c -6.25808,0 -9.35841,3.15774 -9.35841,9.53065 V 213.27 c 0,6.37291 3.10033,9.53066 9.35841,9.53066 h 13.31995 c 6.20067,0 9.35841,-3.15775 9.35841,-9.53066 v -22.85059 c 0,-6.37291 -3.15774,-9.53065 -9.35841,-9.53065 z m -4.99497,10.21961 c 0,-3.96153 1.95205,-5.9136 5.79877,-5.9136 h 11.65495 c 3.90412,0 5.79877,1.95207 5.79877,5.9136 v 21.47268 c 0,3.96154 -1.89465,5.91359 -5.79877,5.91359 H 174.9416 c -3.84672,0 -5.79877,-1.95205 -5.79877,-5.91359 z m 42.31381,-10.21961 c -6.02842,0 -9.01392,3.10032 -9.01392,9.18616 v 4.82274 c 0,5.56912 2.69843,8.32498 8.15272,8.32498 h 12.40133 c 3.10034,0 4.65051,1.60757 4.65051,4.76532 v 5.16722 c 0,3.55964 -1.72242,5.33946 -5.22464,5.33946 h -19.69286 v 4.30602 h 20.15216 c 6.02842,0 9.01394,-3.10034 9.01394,-9.18618 v -5.971 c 0,-5.56911 -2.69845,-8.32496 -8.15272,-8.32496 h -12.34393 c -3.15774,0 -4.65049,-1.60759 -4.65049,-4.76534 v -4.01894 c 0,-3.55966 1.7224,-5.33947 5.16722,-5.33947 h 18.60199 v -4.30601 z"
       id="path3" />
  </g>
</svg>
