<?xml version="1.0" encoding="UTF-8" standalone="no"?>
<svg
   version="1.1"
   style="display:block"
   viewBox="0 0 250 300"
   width="125"
   height="150"
   preserveAspectRatio="none"
   id="svg17"
   sodipodi:docname="matrixos-logo-lightmode.svg"
   inkscape:version="1.4.3 (0d15f75042, 2025-12-25)"
   xmlns:inkscape="http://www.inkscape.org/namespaces/inkscape"
   xmlns:sodipodi="http://sodipodi.sourceforge.net/DTD/sodipodi-0.dtd"
   xmlns="http://www.w3.org/2000/svg"
   xmlns:svg="http://www.w3.org/2000/svg">
  <sodipodi:namedview
     id="namedview17"
     pagecolor="#ffffff"
     bordercolor="#000000"
     borderopacity="0.25"
     inkscape:showpageshadow="2"
     inkscape:pageopacity="0.0"
     inkscape:pagecheckerboard="false"
     inkscape:deskcolor="#d1d1d1"
     inkscape:zoom="2.8871211"
     inkscape:cx="65.809501"
     inkscape:cy="74.12228"
     inkscape:window-width="3072"
     inkscape:window-height="1659"
     inkscape:window-x="0"
     inkscape:window-y="0"
     inkscape:window-maximized="1"
     inkscape:current-layer="g18"
     showgrid="false" />
  <defs
     id="defs2">
    <linearGradient
       id="Gradient1"
       gradientUnits="userSpaceOnUse"
       x1="1397.49"
       y1="818.14099"
       x2="1019.57"
       y2="604.84998"
       gradientTransform="matrix(1.5479745,0,0,1.5479745,-572.45992,-307.29698)">
      <stop
         class="stop0"
         offset="0"
         stop-opacity="1"
         stop-color="rgb(81,211,254)"
         id="stop1" />
      <stop
         class="stop1"
         offset="1"
         stop-opacity="1"
         stop-color="rgb(101,234,253)"
         id="stop2" />
    </linearGradient>
  </defs>
  <g
     id="g18"
     transform="translate(12.352035,22.739733)">
    <path
       d="M -0.9897052,37.28043 V 159.07186 H 15.816844 V 54.07925 H 80.241942 V 159.07186 H 96.581641 V 54.07925 h 40.382379 c 15.87287,0 23.80929,8.39941 23.80929,24.96491 v 80.0277 h 17.03996 v -82.8275 c 0,-25.89819 -12.60489,-38.96393 -37.58129,-38.96393 z"
       id="text19"
       style="font-size:1260.08px;font-family:Zekton;-inkscape-font-specification:Zekton;fill:#33363f;fill-opacity:1;stroke:#33363f;stroke-width:10.752;stroke-dasharray:none;stroke-opacity:1"
       aria-label="m" />
    <path
       fill="#48cefe"
       d="m 208.14299,32.05505 c -5.24044,-0.19362 -12.67875,-0.17197 -17.97254,-0.008 2.55534,2.43056 4.92085,5.22422 7.19222,7.92975 16.58978,19.7609 22.89371,45.37513 19.47176,70.86056 -1.89017,14.77545 -7.41689,28.83407 -16.07304,40.88639 -2.8844,4.00531 -5.54308,7.05027 -8.7891,10.69683 -0.76055,0.7856 -1.30052,1.39798 -2.20366,2.01502 l 17.82444,-0.0139 c 0.16108,-0.14538 0.31729,-0.29541 0.46846,-0.45157 2.00497,-2.03051 5.51464,-7.07504 7.16977,-9.49061 11.58577,-16.91233 16.56122,-37.17459 16.41632,-57.64207 -0.14322,-20.2451 -5.81729,-41.25924 -17.77598,-57.72976 -1.5405,-2.12158 -3.89592,-5.2233 -5.72865,-7.05291 z"
       id="path7-1"
       style="display:block;fill:#33363f;fill-opacity:1;stroke:#33363f;stroke-width:0.17734;stroke-dasharray:none;stroke-opacity:1" />
    <path
       style="font-size:322.581px;font-family:Zekton;-inkscape-font-specification:Zekton;fill:#33363f;fill-opacity:1;stroke:#33363f;stroke-width:0.17734;stroke-dasharray:none;stroke-opacity:1"
       d="m -6.3549132,192.69532 v 29.90828 h 4.1252794 V 196.82059 H 13.58394 v 25.78301 h 4.010688 v -25.78301 h 9.91213 c 3.896099,0 5.844147,2.06266 5.844147,6.13063 v 19.65238 h 4.182575 v -20.33993 c 0,-6.35981 -3.093959,-9.56835 -9.224584,-9.56835 z m 51.1075832,0 v 4.06799 h 17.074074 c 3.781506,0 5.672259,2.00534 5.672259,5.90144 v 10.2559 c 0,4.06799 -1.948048,6.07333 -5.844145,6.07333 h -9.109993 c -3.093959,0 -4.698235,-1.54698 -4.698235,-4.58365 v -1.37508 c 0,-2.63561 1.54698,-3.9534 4.64094,-3.9534 h 12.719612 v -3.38044 H 51.398954 c -5.099305,0 -7.563013,2.23453 -7.563013,6.64629 v 2.34911 c 0,5.2712 2.635596,7.90679 7.964082,7.90679 h 10.542381 c 6.18792,0 9.339174,-3.20854 9.339174,-9.56835 v -10.77158 c 0,-6.35981 -3.151253,-9.56835 -9.339174,-9.56835 z m 36.783722,-9.74025 v 9.74025 h -5.614965 v 3.72422 h 5.614965 v 26.18406 h 4.182574 v -26.18406 h 6.474399 v -3.72422 h -6.474399 v -9.74025 z m 24.522438,9.79755 c -6.245207,0 -9.339169,3.20854 -9.339169,9.56835 v 20.28263 h 4.182569 v -19.59508 c 0,-4.06799 2.00535,-6.13063 5.90145,-6.13063 h 7.33383 v -4.12527 z m 13.29261,0.22918 v 29.6218 h 4.18257 v -29.6218 z m 0,-12.60502 v 6.64628 h 4.18257 v -6.64628 z m 36.61185,12.31854 -11.17263,12.14666 -11.05806,-12.14666 h -5.1566 l 13.23527,14.66765 -14.152,15.24063 h 4.92742 l 11.68829,-12.60502 11.40181,12.60502 h 5.2712 l -13.80822,-15.12603 13.75093,-14.78225 z"
       id="path6" />
    <path
       style="font-size:322.581px;font-family:Zekton;-inkscape-font-specification:Zekton;fill:#33363f;fill-opacity:1;stroke:#33363f;stroke-width:0.17734;stroke-dasharray:none;stroke-opacity:1"
       d="m 174.0114,180.77785 c -6.24521,0 -9.33917,3.15125 -9.33917,9.51106 v 22.80362 c 0,6.35981 3.09396,9.51107 9.33917,9.51107 h 13.29257 c 6.18793,0 9.33918,-3.15126 9.33918,-9.51107 v -22.80362 c 0,-6.35981 -3.15125,-9.51106 -9.33918,-9.51106 z m -4.9847,10.19861 c 0,-3.9534 1.94804,-5.90146 5.78685,-5.90146 h 11.63099 c 3.8961,0 5.78686,1.94806 5.78686,5.90146 v 21.42853 c 0,3.9534 -1.89076,5.90144 -5.78686,5.90144 h -11.63099 c -3.83881,0 -5.78685,-1.94804 -5.78685,-5.90144 z m 42.22684,-10.19861 c -6.01603,0 -8.9954,3.09395 -8.9954,9.16728 v 4.81283 c 0,5.55767 2.69289,8.30786 8.13597,8.30786 h 12.37584 c 3.09396,0 4.64095,1.60426 4.64095,4.75553 v 5.1566 c 0,3.55232 -1.71888,5.32848 -5.2139,5.32848 h -19.65238 v 4.29717 h 20.11073 c 6.01603,0 8.99542,-3.09396 8.99542,-9.1673 v -5.95873 c 0,-5.55766 -2.69291,-8.30785 -8.13597,-8.30785 h -12.31856 c -3.15124,0 -4.64093,-1.60428 -4.64093,-4.75554 v -4.01068 c 0,-3.55233 1.71886,-5.3285 5.1566,-5.3285 h 18.56376 v -4.29715 z"
       id="path7" />
  </g>
</svg>
