<?xml version="1.0" encoding="UTF-8" standalone="no"?>
<svg
   version="1.1"
   style="display:block"
   viewBox="0 0 95.999999 95.999998"
   width="48"
   height="48"
   preserveAspectRatio="none"
   id="svg17"
   sodipodi:docname="matrixos-logo-login.svg"
   inkscape:version="1.4.3 (0d15f75042, 2025-12-25)"
   xmlns:inkscape="http://www.inkscape.org/namespaces/inkscape"
   xmlns:sodipodi="http://sodipodi.sourceforge.net/DTD/sodipodi-0.dtd"
   xmlns="http://www.w3.org/2000/svg"
   xmlns:svg="http://www.w3.org/2000/svg">
  <sodipodi:namedview
     id="namedview17"
     pagecolor="#333333"
     bordercolor="#000000"
     borderopacity="0.25"
     inkscape:showpageshadow="2"
     inkscape:pageopacity="0.0"
     inkscape:pagecheckerboard="false"
     inkscape:deskcolor="#d1d1d1"
     inkscape:zoom="8.2090678"
     inkscape:cx="22.35333"
     inkscape:cy="29.905954"
     inkscape:window-width="1704"
     inkscape:window-height="996"
     inkscape:window-x="0"
     inkscape:window-y="0"
     inkscape:window-maximized="1"
     inkscape:current-layer="g20" />
  <defs
     id="defs2">
    <linearGradient
       id="Gradient1"
       gradientUnits="userSpaceOnUse"
       x1="1397.49"
       y1="818.14099"
       x2="1019.57"
       y2="604.84998"
       gradientTransform="matrix(1.5479745,0,0,1.5479745,-572.45992,-307.29698)">
      <stop
         class="stop0"
         offset="0"
         stop-opacity="1"
         stop-color="rgb(81,211,254)"
         id="stop1" />
      <stop
         class="stop1"
         offset="1"
         stop-opacity="1"
         stop-color="rgb(101,234,253)"
         id="stop2" />
    </linearGradient>
  </defs>
  <g
     id="g20"
     transform="translate(-71.184493,-750.8468)">
    <path
       d="m 74.444396,763.17683 v 47.9503 h 6.616878 v -41.33647 h 25.364696 v 41.33647 h 6.43308 v -41.33647 h 15.89888 c 6.24928,0 9.37392,3.30692 9.37392,9.8289 v 31.50757 h 6.70877 v -32.60988 c 0,-10.19633 -4.96265,-15.34042 -14.79607,-15.34042 z"
       id="text19"
       style="font-size:1260.08px;font-family:Zekton;-inkscape-font-specification:Zekton;fill:#ffffff;fill-opacity:1;stroke:#ffffff;stroke-width:4.22449;stroke-opacity:1"
       aria-label="m" />
    <path
       fill="#48cefe"
       d="m 156.78168,761.11955 c -2.0632,-0.0762 -4.99172,-0.0677 -7.07593,-0.003 1.00606,0.95693 1.93738,2.05682 2.83163,3.12201 6.53154,7.78003 9.01345,17.86457 7.6662,27.89839 -0.74418,5.81722 -2.92009,11.35222 -6.32809,16.09732 -1.13561,1.57692 -2.18236,2.77575 -3.46034,4.21143 -0.29944,0.3093 -0.51203,0.5504 -0.8676,0.79333 l 7.01763,-0.005 c 0.0634,-0.0572 0.12492,-0.11631 0.18443,-0.17779 0.78938,-0.79943 2.17116,-2.7855 2.8228,-3.73653 4.56142,-6.65853 6.52029,-14.63595 6.46325,-22.69416 -0.0564,-7.97067 -2.29032,-16.24411 -6.99856,-22.72869 -0.60651,-0.83529 -1.53385,-2.05646 -2.25542,-2.77679 z"
       id="path7-1"
       style="display:block;fill:#ffffff;fill-opacity:1;stroke:#ffffff;stroke-width:0.0605289;stroke-opacity:1" />
    <path
       style="font-size:322.581px;font-family:Zekton;-inkscape-font-specification:Zekton;fill:#ffffff;fill-opacity:1;stroke:#ffffff;stroke-width:1.03716;stroke-opacity:1"
       d="m 72.332069,824.36497 v 11.77514 h 1.624157 v -10.15099 h 6.225936 v 10.15099 h 1.579041 v -10.15099 h 3.902489 c 1.533926,0 2.300889,0.81209 2.300889,2.41368 v 7.73731 h 1.646714 v -8.008 c 0,-2.50391 -1.218117,-3.76714 -3.631795,-3.76714 z m 20.121482,0 v 1.6016 h 6.722205 c 1.488814,0 2.233214,0.78952 2.233214,2.32344 v 4.03784 c 0,1.6016 -0.76696,2.39112 -2.300887,2.39112 h -3.58668 c -1.218118,0 -1.849734,-0.60906 -1.849734,-1.80462 v -0.54138 c 0,-1.03766 0.609059,-1.55649 1.827176,-1.55649 h 5.007815 v -1.33091 h -5.436412 c -2.007638,0 -2.977621,0.87976 -2.977621,2.6167 v 0.92487 c 0,2.07531 1.037656,3.11297 3.135526,3.11297 h 4.150623 c 2.436234,0 3.676914,-1.26323 3.676914,-3.76714 v -4.24086 c 0,-2.50391 -1.24068,-3.76714 -3.676914,-3.76714 z m 14.482059,-3.83482 v 3.83482 h -2.21066 v 1.46625 h 2.21066 v 10.30889 h 1.64671 v -10.30889 h 2.54903 v -1.46625 h -2.54903 v -3.83482 z m 9.65469,3.85738 c -2.45879,0 -3.67691,1.26323 -3.67691,3.76714 v 7.98544 h 1.64671 v -7.71475 c 0,-1.6016 0.78953,-2.41368 2.32345,-2.41368 h 2.88739 v -1.62415 z m 5.23341,0.0902 v 11.66235 h 1.64672 v -11.66235 z m 0,-4.96271 v 2.6167 h 1.64672 v -2.6167 z m 14.41439,4.84992 -4.39876,4.78224 -4.35365,-4.78224 h -2.03019 l 5.21083,5.77478 -5.57176,6.00036 h 1.93997 l 4.60178,-4.9627 4.48899,4.9627 h 2.07531 l -5.43641,-5.95525 5.41385,-5.81989 z"
       id="path2" />
    <path
       style="font-size:322.581px;font-family:Zekton;-inkscape-font-specification:Zekton;fill:#ffffff;fill-opacity:1;stroke:#ffffff;stroke-width:1.03716;stroke-opacity:1"
       d="m 143.3438,819.67296 c -2.4588,0 -3.67692,1.24067 -3.67692,3.74458 v 8.97798 c 0,2.50391 1.21812,3.74459 3.67692,3.74459 h 5.23339 c 2.43624,0 3.67691,-1.24068 3.67691,-3.74459 v -8.97798 c 0,-2.50391 -1.24067,-3.74458 -3.67691,-3.74458 z m -1.96252,4.01528 c 0,-1.55649 0.76695,-2.32345 2.27833,-2.32345 h 4.57922 c 1.53392,0 2.27833,0.76696 2.27833,2.32345 v 8.43659 c 0,1.55649 -0.74441,2.32345 -2.27833,2.32345 h -4.57922 c -1.51138,0 -2.27833,-0.76696 -2.27833,-2.32345 z m 16.62506,-4.01528 c -2.36857,0 -3.54157,1.21811 -3.54157,3.60924 v 1.89484 c 0,2.18811 1.06021,3.27088 3.2032,3.27088 h 4.87247 c 1.21812,0 1.82718,0.63161 1.82718,1.87229 v 2.0302 c 0,1.39858 -0.67674,2.09787 -2.05275,2.09787 h -7.73731 v 1.69183 h 7.91776 c 2.36857,0 3.54157,-1.21812 3.54157,-3.60924 v -2.34601 c 0,-2.18809 -1.06022,-3.27086 -3.20319,-3.27086 h -4.84992 c -1.24068,0 -1.82718,-0.63162 -1.82718,-1.8723 v -1.57904 c 0,-1.39858 0.67673,-2.09787 2.0302,-2.09787 h 7.3087 v -1.69183 z"
       id="path3" />
  </g>
</svg>
